<svg xmlns="http://www.w3.org/2000/svg" width="500" height="280" role="img" aria-label="Weather info">
  <style>
    text { font-family: -apple-system, BlinkMacSystemFont, "Segoe UI", sans-serif; }
    .bubble { fill: #e0f7fa; stroke: #26c6da; rx: 12; ry: 12; }
    .bubble-text { font-size: 16px; fill: #004d40; }
    .icon svg { width: 24px; height: 24px; }
  </style>
  <text x="20" y="30" font-size="20">👋 Hi, I'm Kevin</text>
  
<g transform="translate(20, 50)">
  <rect class="bubble" x="0" y="0" width="460" height="40" />
  <g transform="translate(10,4)" class="icon"><svg xmlns="http://www.w3.org/2000/svg" viewBox="0 0 64 64">
	<g>
		<path d="M42.5,32A10.5,10.5,0,1,1,32,21.5,10.5,10.5,0,0,1,42.5,32ZM32,15.71V9.5m0,45V48.29M43.52,20.48l4.39-4.39M16.09,47.91l4.39-4.39m0-23-4.39-4.39M47.91,47.91l-4.39-4.39M15.71,32H9.5m45,0H48.29" fill="none" stroke="#f59e0b" stroke-linecap="round" stroke-miterlimit="10" stroke-width="3"/>
		<animateTransform attributeName="transform" dur="45s" from="0 32 32" repeatCount="indefinite" to="360 32 32" type="rotate"/>
	</g>
</svg>
</g>
  <text id="weather-dots" x="50" y="26" class="bubble-text">
    <tspan>.</tspan><tspan>.</tspan><tspan>.</tspan>
    <animate attributeName="opacity" values="0;1;0" dur="1s" repeatCount="indefinite" begin="0s" />
  </text>
  <text id="weather-text" x="50" y="26" class="bubble-text" opacity="0">
    Weather: Clear sky 82.3°F
    <set attributeName="opacity" to="1" begin="0s + 2s" />
  </text>
  <set attributeName="visibility" to="hidden" begin="0s + 2s" xlink:href="#weather-dots"/>
</g>

  
<g transform="translate(20, 110)">
  <rect class="bubble" x="0" y="0" width="460" height="40" />
  <g transform="translate(10,4)" class="icon"><svg xmlns="http://www.w3.org/2000/svg" viewBox="0 0 64 64">
	<g>
		<path d="M42.5,32A10.5,10.5,0,1,1,32,21.5,10.5,10.5,0,0,1,42.5,32ZM32,15.71V9.5m0,45V48.29M43.52,20.48l4.39-4.39M16.09,47.91l4.39-4.39m0-23-4.39-4.39M47.91,47.91l-4.39-4.39M15.71,32H9.5m45,0H48.29" fill="none" stroke="#f59e0b" stroke-linecap="round" stroke-miterlimit="10" stroke-width="3"/>
		<animateTransform attributeName="transform" dur="45s" from="0 32 32" repeatCount="indefinite" to="360 32 32" type="rotate"/>
	</g>
	<rect x="33.5" y="33.5" width="21" height="21" rx="6" fill="#ffb800" stroke="#fff" stroke-miterlimit="10" stroke-width="2"/>
	<path d="M47.4,44.87a.53.53,0,0,1,.1.36v.63a.55.55,0,0,1-.1.36.54.54,0,0,1-.38.1h-.64v1.22a.5.5,0,0,1-.11.36.51.51,0,0,1-.37.1h-.81a.51.51,0,0,1-.37-.1.5.5,0,0,1-.11-.36V46.32H41a.54.54,0,0,1-.38-.1.5.5,0,0,1-.1-.36V45.3a1.44,1.44,0,0,1,0-.35.92.92,0,0,1,.17-.25l3.66-4.37a1,1,0,0,1,.3-.26A.81.81,0,0,1,45,40h.86a.51.51,0,0,1,.37.1.5.5,0,0,1,.11.36v4.31H47A.54.54,0,0,1,47.4,44.87Zm-4.79-.1h2V42.39Z" fill="#fff"/>
</svg>
</g>
  <text id="uv-dots" x="50" y="26" class="bubble-text">
    <tspan>.</tspan><tspan>.</tspan><tspan>.</tspan>
    <animate attributeName="opacity" values="0;1;0" dur="1s" repeatCount="indefinite" begin="0.5s" />
  </text>
  <text id="uv-text" x="50" y="26" class="bubble-text" opacity="0">
    UV Index: 4.75
    <set attributeName="opacity" to="1" begin="0.5s + 2s" />
  </text>
  <set attributeName="visibility" to="hidden" begin="0.5s + 2s" xlink:href="#uv-dots"/>
</g>

  
<g transform="translate(20, 170)">
  <rect class="bubble" x="0" y="0" width="460" height="40" />
  <g transform="translate(10,4)" class="icon"><svg xmlns="http://www.w3.org/2000/svg" viewBox="0 0 64 64">
	<path d="M43.64,20a5,5,0,1,1,3.61,8.46H11.75" fill="none" stroke="#e5e7eb" stroke-dasharray="35 22" stroke-linecap="round" stroke-miterlimit="10" stroke-width="3">
		<animate attributeName="stroke-dashoffset" values="-57; 57" dur="1.8s" repeatCount="indefinite"/>
	</path>
	<path d="M29.14,44a5,5,0,1,0,3.61-8.46h-21" fill="none" stroke="#e5e7eb" stroke-dasharray="24 15" stroke-linecap="round" stroke-miterlimit="10" stroke-width="3">
		<animate attributeName="stroke-dashoffset" values="-39; 39" dur="1.8s" begin="-.45s" repeatCount="indefinite"/>
	</path>
	<path d="M53.25,41.33a.57.57,0,0,1,.11.39v.65a.6.6,0,0,1-.11.4.56.56,0,0,1-.4.11h-1v2a.43.43,0,0,1-.51.51h-.73a.55.55,0,0,1-.4-.12.51.51,0,0,1-.11-.39v-2h-5a.6.6,0,0,1-.4-.11.55.55,0,0,1-.11-.4v-.54a1,1,0,0,1,.18-.62l5-6.17a.88.88,0,0,1,.72-.36h.82a.6.6,0,0,1,.4.1.59.59,0,0,1,.11.41v6h1A.55.55,0,0,1,53.25,41.33Zm-6.45-.12h3.26v-4Z" fill="#374151"/>
</svg>
</g>
  <text id="wind-dots" x="50" y="26" class="bubble-text">
    <tspan>.</tspan><tspan>.</tspan><tspan>.</tspan>
    <animate attributeName="opacity" values="0;1;0" dur="1s" repeatCount="indefinite" begin="1s" />
  </text>
  <text id="wind-text" x="50" y="26" class="bubble-text" opacity="0">
    Wind: 16.3 mph
    <set attributeName="opacity" to="1" begin="1s + 2s" />
  </text>
  <set attributeName="visibility" to="hidden" begin="1s + 2s" xlink:href="#wind-dots"/>
</g>

  <text x="20" y="250" font-size="18">🚀 Full‑Stack Engineer (MERN + Django)</text>
</svg>